<svg xmlns="http://www.w3.org/2000/svg" 
    viewBox="0 0 817.31 167.86">
    <defs>
        <style>.cls-1{fill:#194c85;}.cls-2{fill:#1eaa7d;}</style>
    </defs>
    <title>reepy-logo-color</title>
    <g id="Layer_2" 
        data-name="Layer 2">
        <g id="logo">
            <path class="cls-1" 
                d="M80.91,1.22A31.46,31.46,0,0,0,71.74,0,37.35,37.35,0,0,0,52.08,5.25,30.46,30.46,0,0,0,39.34,20.79L36.43,2.91H0V120.83c4.75.24,24.87.1,44.48-17.52V68.39q0-14.08,6.15-21.24t20-7.15H84.93V2.68Q84.93,2.46,80.91,1.22Z"/>
            <path class="cls-1" 
                d="M230.44,61.91q0-31.29-17.1-46.49T163.83.22q-31.07,0-48.72,15.64t-17.66,46q0,31.07,18.11,46.38t51,15.31q31.29,0,47.61-12.07T230.44,78H187.3q0,7.82-5.26,12.52t-16.43,4.69q-12.29,0-18-6.49t-5.7-19.22h88.52ZM142.15,48.5q2.45-19.89,23.46-19.9,9.39,0,14.64,5.37t5.26,14.53Z"/>
            <path class="cls-1" 
                d="M379.52,61.91q0-31.29-17.1-46.49T312.91.22q-31.07,0-48.73,15.64t-17.65,46q0,31.07,18.1,46.38t51,15.31q31.29,0,47.61-12.07T379.52,78H336.38q0,7.82-5.25,12.52T314.7,95.22q-12.29,0-18-6.49T291,69.51h88.51ZM291.23,48.5q2.46-19.89,23.47-19.9,9.39,0,14.64,5.37t5.25,14.53Z"/>
            <path class="cls-2" 
                d="M515.64,15.87Q502.67.22,478.75.22q-24.58,0-37.55,19.45L437.4,2.91H401.2V165h44.48V110.19q12.51,13.4,33.08,13.41,23.92,0,36.88-15.53t13-45.94Q528.6,31.51,515.64,15.87ZM484.12,67.72q0,23-19.23,23-9.83,0-14.75-7t-4.92-18.22V58.11q0-11.16,4.92-18.1t14.75-6.93q19.22,0,19.23,22.79Z"/>
            <path class="cls-2" 
                d="M676.56,93.43A6.2,6.2,0,0,1,671.2,91a10.34,10.34,0,0,1-1.79-6.25v-46q0-20.35-17-29.4t-44-9.05q-29.73,0-45.71,9.83t-16,26.6a17.23,17.23,0,0,0,.22,3.13h43.81v-.9a8.2,8.2,0,0,1,5-7.83,27.1,27.1,0,0,1,12-2.46q7.59,0,12.4,3.57t4.81,10.51V48.5q-28.17,0-45.6,3.35t-26.71,12.4q-9.28,9-9.28,26.26,0,33.08,41.57,33.08,14.08,0,24.59-4a72.08,72.08,0,0,0,19-10.73q3.12,6.94,11.51,10.85t21.35,3.91a62.26,62.26,0,0,0,11.84-1,57.29,57.29,0,0,0,7.94-2,20.74,20.74,0,0,0,3.46-1.45V93.43ZM624.94,79.57q0,6.93-6.59,11.62A25.75,25.75,0,0,1,603,95.88q-15.2,0-15.2-11.17,0-6.93,9.05-11.07t28.06-4.14Z"/>
            <path class="cls-2" 
                d="M778.45,3.05,757.7,81.36h-1.57L733.56,2.91H685.73l46.93,118q-3.13,16.32-19.89,16.32H694.89v26.6a75.79,75.79,0,0,0,25.7,4q23.92,0,37.21-12.85t22.47-37.66l37-100.86C800.2,3.57,783.69,2.9,778.45,3.05Z"/>
        </g>
    </g>
</svg>